<?xml version="1.0" encoding="utf-8"?>
<!-- Generator: Adobe Illustrator 27.0.0, SVG Export Plug-In . SVG Version: 6.00 Build 0)  -->
<svg version="1.1" id="Layer_1" xmlns="http://www.w3.org/2000/svg" xmlns:xlink="http://www.w3.org/1999/xlink" x="0px" y="0px"
	 viewBox="0 0 822.55573 822.55573" style="enable-background:new 0 0 822.55573 822.55573;" xml:space="preserve">
<style type="text/css">
	.st0{fill:#16111F;}
	.st1{fill:url(#SVGID_1_);}
	.st2{fill:url(#SVGID_00000045591883314648244700000013873222699943378591_);}
	.st3{fill:url(#SVGID_00000101072951252123100240000011651580439107843237_);}
	.st4{fill:url(#SVGID_00000100358253431304508440000012119333091702733476_);}
	.st5{fill:#7B4010;}
	.st6{fill:#FFFFFF;}
	.st7{fill:url(#SVGID_00000113344076378867852040000015828621587659587735_);}
	.st8{fill:url(#SVGID_00000076569678546521442470000013762884216494928567_);}
	.st9{fill:url(#SVGID_00000003810206810659153510000012286099000681601188_);}
	.st10{fill:url(#SVGID_00000104707257703161503480000014064632010591102345_);}
	.st11{fill:url(#SVGID_00000006665640808134699060000015286848398316629391_);}
	.st12{fill:url(#SVGID_00000032644207358794849610000016651862269358476207_);}
	.st13{fill:url(#SVGID_00000028318618120358959530000004341105880341765764_);}
	.st14{fill:url(#SVGID_00000072980507003573461540000015327382174468894858_);}
	.st15{fill:url(#SVGID_00000166662007757955977260000003406209272536660641_);}
	.st16{fill:url(#SVGID_00000008838858929023870350000002831861697804537258_);}
	.st17{fill:url(#SVGID_00000120517834827305411640000012470470269963318155_);}
	.st18{fill:url(#SVGID_00000002386405016961132130000007560846507826551462_);}
	.st19{fill:url(#SVGID_00000127035035983192626240000003818443711434963075_);}
</style>
<g>
	<g>
		<circle class="st0" cx="411.27786" cy="411.27786" r="411.27786"/>
	</g>
</g>
<g>
	<linearGradient id="SVGID_1_" gradientUnits="userSpaceOnUse" x1="253.26369" y1="496.64792" x2="557.60413" y2="332.22238">
		<stop  offset="2.770450e-07" style="stop-color:#162635"/>
		<stop  offset="1" style="stop-color:#2B103A"/>
	</linearGradient>
	<circle class="st1" cx="411.27786" cy="411.27786" r="177.83104"/>
</g>
<g>
	<path class="st0" d="M417.4176,531.96979c-14.32263-1.4328-19.16846-16.51764-21.77179-24.62192
		c-0.35181-1.09698-0.67642-2.11615-0.99625-2.99991c-1.0314-2.85602-4.29892-7.20236-6.7562-9.97308
		c-21.35336-12.33228-56.40518-37.66422-62.26855-73.52466c-8.42728-51.61212,12.80936-77.46802,13.71762-78.54315l7.08032-8.38464
		l11.39175,12.00711c4.63757,4.88806,5.77148,12.13364,2.849,18.20483l-1.05402,2.18964
		c-4.44604,9.24762-1.91946,20.14709,6.14587,26.5014l45.52274,35.84445l45.5249-35.84604
		c8.05948-6.35593,10.5882-17.25647,6.1416-26.50461l-1.05185-2.1853c-2.92221-6.07095-1.78839-13.31619,2.84885-18.20416
		l11.39136-12.00732l7.08081,8.38464c0.90829,1.07513,22.14545,26.9321,13.70645,78.54315
		c-5.28769,32.34134-33.80505,56.0603-56.79694,70.26248c-8.94327,5.52332-13.91968,15.73624-12.67984,26.01846
		c0.18549,1.53516,0.42429,2.4552,0.42749,2.46368l3.95618,13.90479L417.4176,531.96979z"/>
</g>
<g>
	<g>
		<g>
			
				<linearGradient id="SVGID_00000109734583912418993280000010802925281241094579_" gradientUnits="userSpaceOnUse" x1="115.96578" y1="571.74457" x2="552.0509" y2="123.40414">
				<stop  offset="2.770450e-07" style="stop-color:#11FFFF"/>
				<stop  offset="0.81844" style="stop-color:#FC49E6"/>
				<stop  offset="1" style="stop-color:#9648B5"/>
			</linearGradient>
			<path style="fill:url(#SVGID_00000109734583912418993280000010802925281241094579_);" d="M175.76222,633.56671
				c-42.61133-45.13086-71.20214-101.05176-82.68066-161.71579l1.96484-0.37109
				c11.40771,60.28708,39.82177,115.8613,82.16991,160.71384L175.76222,633.56671z"/>
		</g>
	</g>
	<g>
		<g>
			
				<linearGradient id="SVGID_00000121993576311423373190000004747362892322737319_" gradientUnits="userSpaceOnUse" x1="-11.93041" y1="447.34439" x2="424.15469" y2="-0.99603">
				<stop  offset="2.770450e-07" style="stop-color:#11FFFF"/>
				<stop  offset="0.81844" style="stop-color:#FC49E6"/>
				<stop  offset="1" style="stop-color:#9648B5"/>
			</linearGradient>
			<path style="fill:url(#SVGID_00000121993576311423373190000004747362892322737319_);" d="M220.99074,151.67366l-1.18359-1.6123
				c50.61378-37.16259,110.51173-58.64697,173.2173-62.13085l0.11133,1.99707
				C330.8179,93.38949,271.29105,114.74105,220.99074,151.67366z"/>
		</g>
	</g>
	<g>
		<g>
			
				<linearGradient id="SVGID_00000062162533959404641110000017621011914951026856_" gradientUnits="userSpaceOnUse" x1="-21.62778" y1="437.91211" x2="414.45734" y2="-10.42833">
				<stop  offset="2.770450e-07" style="stop-color:#11FFFF"/>
				<stop  offset="0.81844" style="stop-color:#FC49E6"/>
				<stop  offset="1" style="stop-color:#9648B5"/>
			</linearGradient>
			<path style="fill:url(#SVGID_00000062162533959404641110000017621011914951026856_);" d="M93.501,359.91489l-1.97461-0.31641
				c7.74658-48.30566,26.81201-95.0127,55.13476-135.07179l1.63281,1.1543C120.147,265.49203,101.19973,311.90952,93.501,359.91489z
				"/>
		</g>
	</g>
</g>
<g>
	<g>
		<path class="st5" d="M379.19144,383.76031l15.01395-14.74576V165.15178h34.14185v203.86278l15.01443,14.74557
			c7.22061,7.09137,6.1106,19.0246-2.29413,24.66248l-29.79123,19.98398l-29.79068-19.98416
			C373.08118,402.78458,371.9711,390.85168,379.19144,383.76031z"/>
	</g>
</g>
<g>
	<path class="st6" d="M419.5582,372.70154V173.94083h-8.28165h-8.28165v198.76071l-15.83691,15.55408
		c-4.18069,4.10605-3.53793,11.01541,1.3284,14.27985l22.79016,15.28793l22.79016-15.28793
		c4.86633-3.26443,5.50909-10.1738,1.3284-14.27985L419.5582,372.70154z"/>
</g>
<g>
	<g>
		<path class="st6" d="M417.68893,518.30652c0.29407,2.43805,0.70679,3.88757,0.70679,3.88757
			c-9.27905-0.92908-12.08948-14.49347-14.50507-21.18277c-2.41559-6.68927-9.79285-14.4053-9.79285-14.4053
			c-20.7399-11.76981-53.50803-35.11566-58.77698-67.34103c-7.79443-47.73804,11.52786-70.61914,11.52786-70.61914l6.87741,7.2486
			l-2.96933,6.16782c-6.40799,13.32913-2.70728,29.3219,8.91888,38.48083l45.73438,36.01093
			c3.44254,2.7106,8.29364,2.71063,11.73615,0l45.73447-36.01093c11.61523-9.15894,15.32681-25.1517,8.91879-38.48083
			l-2.96927-6.16782l6.87741-7.2486c0,0,19.32233,22.8811,11.51697,70.61914c-4.74496,29.02063-31.7876,50.84-52.26422,63.48877
			C422.81396,490.25677,415.97946,504.13239,417.68893,518.30652z"/>
	</g>
</g>
<g>
	<g>
		
			<linearGradient id="SVGID_00000145775380018545884670000013660647906379965368_" gradientUnits="userSpaceOnUse" x1="21.7585" y1="480.11243" x2="457.8436" y2="31.77199">
			<stop  offset="2.770450e-07" style="stop-color:#11FFFF"/>
			<stop  offset="0.81844" style="stop-color:#FC49E6"/>
			<stop  offset="1" style="stop-color:#9648B5"/>
		</linearGradient>
		<polygon style="fill:url(#SVGID_00000145775380018545884670000013660647906379965368_);" points="347.35159,180.67073 
			331.26663,123.7347 335.11624,122.64681 351.2012,179.58284 		"/>
	</g>
</g>
<g>
	
		<linearGradient id="SVGID_00000136375372725359838280000012440979148748801414_" gradientUnits="userSpaceOnUse" x1="0.99489" y1="459.91638" x2="437.07999" y2="11.57595">
		<stop  offset="2.770450e-07" style="stop-color:#11FFFF"/>
		<stop  offset="0.81844" style="stop-color:#FC49E6"/>
		<stop  offset="1" style="stop-color:#9648B5"/>
	</linearGradient>
	<polygon style="fill:url(#SVGID_00000136375372725359838280000012440979148748801414_);" points="280.16751,213.41975 
		241.10353,172.31331 244.00294,169.55745 283.06693,210.66389 	"/>
</g>
<g>
	
		<linearGradient id="SVGID_00000119810670948515145310000007961326645481330877_" gradientUnits="userSpaceOnUse" x1="12.46533" y1="471.07327" x2="448.55045" y2="22.73286">
		<stop  offset="2.770450e-07" style="stop-color:#11FFFF"/>
		<stop  offset="0.81844" style="stop-color:#FC49E6"/>
		<stop  offset="1" style="stop-color:#9648B5"/>
	</linearGradient>
	<polygon style="fill:url(#SVGID_00000119810670948515145310000007961326645481330877_);" points="176.13673,340.25815 
		126.34963,318.556 127.94827,314.88901 177.73537,336.59116 	"/>
</g>
<g>
	
		<linearGradient id="SVGID_00000143600901455482139770000015844379746361013399_" gradientUnits="userSpaceOnUse" x1="30.76225" y1="488.87006" x2="466.84735" y2="40.52963">
		<stop  offset="2.770450e-07" style="stop-color:#11FFFF"/>
		<stop  offset="0.81844" style="stop-color:#FC49E6"/>
		<stop  offset="1" style="stop-color:#9648B5"/>
	</linearGradient>
	
		<rect x="85.27639" y="413.02036" style="fill:url(#SVGID_00000143600901455482139770000015844379746361013399_);" width="34.63379" height="4"/>
</g>
<g>
	
		<linearGradient id="SVGID_00000151530397061967578870000004206546157500707459_" gradientUnits="userSpaceOnUse" x1="94.08141" y1="550.45837" x2="530.1665" y2="102.11797">
		<stop  offset="2.770450e-07" style="stop-color:#11FFFF"/>
		<stop  offset="0.81844" style="stop-color:#FC49E6"/>
		<stop  offset="1" style="stop-color:#9648B5"/>
	</linearGradient>
	<polygon style="fill:url(#SVGID_00000151530397061967578870000004206546157500707459_);" points="120.91946,503.22006 
		119.67629,499.41733 182.95265,478.73569 184.19582,482.53842 	"/>
</g>
<g>
	
		<linearGradient id="SVGID_00000091701816612762493300000012668725109672052880_" gradientUnits="userSpaceOnUse" x1="233.05554" y1="685.63367" x2="669.14062" y2="237.29326">
		<stop  offset="2.770450e-07" style="stop-color:#11FFFF"/>
		<stop  offset="0.81844" style="stop-color:#FC49E6"/>
		<stop  offset="1" style="stop-color:#9648B5"/>
	</linearGradient>
	<polygon style="fill:url(#SVGID_00000091701816612762493300000012668725109672052880_);" points="248.59523,684.15656 
		245.19191,682.05499 284.76663,617.97003 288.16995,620.07159 	"/>
</g>
<g>
	
		<linearGradient id="SVGID_00000130631212650523585810000014236260369190691775_" gradientUnits="userSpaceOnUse" x1="358.35883" y1="807.51184" x2="794.44391" y2="359.17139">
		<stop  offset="2.770450e-07" style="stop-color:#11FFFF"/>
		<stop  offset="0.81844" style="stop-color:#FC49E6"/>
		<stop  offset="1" style="stop-color:#9648B5"/>
	</linearGradient>
	<polygon style="fill:url(#SVGID_00000130631212650523585810000014236260369190691775_);" points="491.04691,701.80597 
		482.11035,646.14581 486.0596,645.51105 494.99612,701.1712 	"/>
</g>
<g>
	
		<linearGradient id="SVGID_00000147938621952600010340000002381730454538916001_" gradientUnits="userSpaceOnUse" x1="368.64767" y1="817.51947" x2="804.73279" y2="369.17902">
		<stop  offset="2.770450e-07" style="stop-color:#11FFFF"/>
		<stop  offset="0.81844" style="stop-color:#FC49E6"/>
		<stop  offset="1" style="stop-color:#9648B5"/>
	</linearGradient>
	<path style="fill:url(#SVGID_00000147938621952600010340000002381730454538916001_);" d="M571.74316,641.5921
		c-14.14746-14.84961-31.11816-32.70898-31.62012-33.46094l3.32812-2.2207l-1.66406,1.11035l1.58301-1.2207
		c0.92871,1.12988,19.20898,20.37402,31.26953,33.03223L571.74316,641.5921z"/>
</g>
<g>
	
		<linearGradient id="SVGID_00000112611937474457154170000000325108000241668004_" gradientUnits="userSpaceOnUse" x1="369.46994" y1="818.31921" x2="805.55505" y2="369.97879">
		<stop  offset="2.770450e-07" style="stop-color:#11FFFF"/>
		<stop  offset="0.81844" style="stop-color:#FC49E6"/>
		<stop  offset="1" style="stop-color:#9648B5"/>
	</linearGradient>
	<polygon style="fill:url(#SVGID_00000112611937474457154170000000325108000241668004_);" points="701.78223,518.44464 
		647.39844,492.65756 649.11133,489.04233 703.49512,514.82941 	"/>
</g>
<g>
	
		<linearGradient id="SVGID_00000143598362349737172270000016561996683121266074_" gradientUnits="userSpaceOnUse" x1="353.84683" y1="803.12317" x2="789.93195" y2="354.78275">
		<stop  offset="2.770450e-07" style="stop-color:#11FFFF"/>
		<stop  offset="0.81844" style="stop-color:#FC49E6"/>
		<stop  offset="1" style="stop-color:#9648B5"/>
	</linearGradient>
	
		<rect x="714.12793" y="413.78647" style="fill:url(#SVGID_00000143598362349737172270000016561996683121266074_);" width="32.93555" height="4"/>
</g>
<g>
	
		<linearGradient id="SVGID_00000096747181919632954400000011181716351010916504_" gradientUnits="userSpaceOnUse" x1="283.23523" y1="734.44171" x2="719.32031" y2="286.10129">
		<stop  offset="2.770450e-07" style="stop-color:#11FFFF"/>
		<stop  offset="0.81844" style="stop-color:#FC49E6"/>
		<stop  offset="1" style="stop-color:#9648B5"/>
	</linearGradient>
	<polygon style="fill:url(#SVGID_00000096747181919632954400000011181716351010916504_);" points="641.73633,346.19516 
		640.47656,342.39926 704.30664,321.20737 705.56641,325.00327 	"/>
</g>
<g>
	
		<linearGradient id="SVGID_00000077291419115252966800000009121757044619634601_" gradientUnits="userSpaceOnUse" x1="143.62646" y1="598.64917" x2="579.71155" y2="150.30872">
		<stop  offset="2.770450e-07" style="stop-color:#11FFFF"/>
		<stop  offset="0.81844" style="stop-color:#FC49E6"/>
		<stop  offset="1" style="stop-color:#9648B5"/>
	</linearGradient>
	<polygon style="fill:url(#SVGID_00000077291419115252966800000009121757044619634601_);" points="542.91895,198.37434 
		539.63379,196.09212 575.63379,144.26204 578.91895,146.54427 	"/>
</g>
<g>
	
		<linearGradient id="SVGID_00000057148410310007061960000004574232487773238677_" gradientUnits="userSpaceOnUse" x1="196.12122" y1="649.70898" x2="632.2063" y2="201.36855">
		<stop  offset="2.770450e-07" style="stop-color:#11FFFF"/>
		<stop  offset="0.81844" style="stop-color:#FC49E6"/>
		<stop  offset="1" style="stop-color:#9648B5"/>
	</linearGradient>
	<path style="fill:url(#SVGID_00000057148410310007061960000004574232487773238677_);" d="M720.63831,392.04172v-7.91492h-46.08514
		v-18.383c0,0-38.01215,5.72321-52.26501,7.9458c-0.00012-0.00055-0.00018-0.00116-0.00031-0.00171
		c-0.59998-3.44-1.29999-6.86005-2.07001-10.24005c-0.00006-0.00018-0.00006-0.00037-0.00012-0.00055l8.76099-2.17157
		l-4.21277-15.06378l-8.40631,2.70203c-0.00061-0.00201-0.00116-0.00409-0.00177-0.0061
		c-2.02997-6.67999-4.37-13.21997-7.02002-19.59998c-0.00031-0.00079-0.00067-0.00159-0.00098-0.00238l17.5993-7.09357
		l-6.89362-17.36176l-18.76642,7.20447c-1.6488-3.14746-3.37756-6.24518-5.17603-9.3028l58.28284-48.83784l-15.06378-17.48932
		l17.87231-14.80853l-11.48938-15.31915l4.34045-4.21277l-15.06384-12.89362L623.617,199.91402l-6.63831-6.51062l-15.19147,15.31915
		l-14.93622-13.14893l-43.42523,46.98267c-6.35944-4.98932-13.00867-9.62885-19.92792-13.87842
		c-0.00092-0.00055-0.00183-0.0011-0.00275-0.00165l7.05804-12.67706l-12-6.63831l-6.60599,12.68665
		c-4.89764-2.61877-9.90527-5.03766-15.02271-7.26672l11.28833-25.71783l-17.48938-6.76593l-5.48938,14.68085l-19.53192-5.48938
		l-2.64099,11.79022c-0.0011-0.00024-0.00214-0.00061-0.00323-0.00085c-4.22845-1.04962-8.5069-1.97937-12.82538-2.76904
		l18.61853-71.70117l-7.31909-3.14892v-21.70215h-8.85107v13.70215l-21.78723-6.12769v9.0213l-26.89362-0.75024v-16.78168h-7.14899
		v46.46807h-21.27655l3.76581,49.85901c-0.00079,0.00012-0.00165,0.00024-0.00244,0.00037
		c-9.56,1.41998-18.91998,3.47998-28.01996,6.14001l-3.45001-7.87l-15.06,4.71997l3.39001,8.16003
		c-7.65002,2.85999-15.09003,6.13995-22.29004,9.82001l-5.87-8.40002l-12.89001,6.89001l5.07001,9.14996
		c-6.92999,4.21002-13.58997,8.79004-19.96997,13.73004l-47.91005-60.54004l-17.60999,18.51001l-15.58002-14.81l-22.97998,23.87
		l8.67999,13.91998l-10.71997,10.85004l15.95996,14.54999l-13.78998,16.84999l55.35999,29.46002
		c-3.83997,5.89001-7.39996,11.97003-10.64996,18.23999l-16.24005-5.31l-5.23999,14.16998l14.95001,4.88
		c-3.45001,7.98004-6.42999,16.22003-8.89996,24.67004l-6.81006-2.11005l-3.31995,15.07001l6.60999,0.77002
		c-0.89001,3.97998-1.66003,8.01001-2.32001,12.08002l-43.34998-14.89001l-1.28003,17.60999l-43.91998-3.06v8.81h19.14996v45.96002
		h-20.29998v6.89001h43.66003c0,0,0.25995,18.50995,0,19.14996c-0.21002,0.53003,34.69-5.64996,46.69-7.75
		c1.04999,5.85004,2.33997,11.63,3.85999,17.31l-6.5,1.03003l4.45996,14.67999l6.42004-1.41003
		c2.07996,6.03003,4.41998,11.94,7.01001,17.71002l-15.34003,5.53003l8.03998,17.48996l15.61005-6.44
		c2.29999,4.12,4.72998,8.15997,7.28998,12.10999l-60.29999,43.22998l12.89001,15.06l-10.08002,10.21002l13.01996,14.81
		l-5.10999,5.87c0,0,17.75,15.45001,18,15.83002c0.26001,0.39001,15.07001-12.63,15.07001-12.63l15.44,16.59003l46.36-58.59003
		c5.92999,4.79999,12.13,9.28998,18.56,13.45001l-4.65997,9.39996l15.32001,8.30005l4.96997-8.51001
		c7.87,4.20001,16.04004,7.90997,24.46002,11.12l-3.52002,12.32001l20.94,5.35999l3.94-10.84003
		c6.03003,1.59003,12.16003,2.92999,18.39001,3.99005l-17.22998,62.25995l10.21997,3.44v20.17004h7.66003v-14.42004
		c13.65997,4.08002,44.54999,6.25,44.54999,6.25v20.42999h7.52997l4.34003-48.50995h19.78998l-2.72998-49.87
		c10.46997-1.86005,20.67999-4.49005,30.57001-7.81006l5.72998,14.15002l17.48999-6.13l-6.5-14.44
		c5.90002-2.56,11.66998-5.37,17.28-8.42999l4.15997,6.40002l11.73999-6.13l-4.39996-7
		c7.12-4.48004,13.95001-9.35004,20.46997-14.60004c0.00208-0.00165,0.00403-0.00336,0.0061-0.005l39.33221,51.86395
		l15.95746-14.04254l15.57446,18.51062l10.08508-8.29785l19.78723,20.42554l7.27661-5.617l-21.70215-28.97876l12.76599-14.80847
		l-14.42554-16.97876l15.95746-17.74469l-57.29449-31.40765c4.0799-6.02979,7.85968-12.2796,11.30957-18.72937
		c0.00055-0.00104,0.0011-0.00208,0.00165-0.00311c4.35919,1.99847,9.26154,4.23999,9.4726,4.31036
		c0.383,0.12769,6.51068-13.53189,6.51068-13.53189l-9.3017-4.36273c1.7486-3.88727,3.38745-7.8443,4.8963-11.86127l8.36279,2.30914
		l4.46814-14.17023l-8.15039-1.93036c2.28979-7.57941,4.16968-15.34875,5.59955-23.25818l48.63593,15.35876l2.80853-21.70215
		l45.82977,4.85107v-9.06384h-20.29791v-47.36169H720.63831z M595.27783,411.27786
		c0,101.62039-82.37958,183.99997-183.99997,183.99997s-184.00002-82.37958-184.00002-183.99997
		s82.37962-184.00002,184.00002-184.00002S595.27783,309.65747,595.27783,411.27786z"/>
</g>
</svg>
