<?xml version="1.0" encoding="utf-8"?>
<svg
      xmlns="http://www.w3.org/2000/svg"
      x="0px"
      y="0px"
      viewBox="0 0 822.55573 822.55573"
      xmlSpace="preserve"
    >
      <linearGradient id="MAIN_GRADIENT" x1="0%" y1="0%" x2="100%" y2="0%">
        <stop offset="0%" stop-color="#b794f4" />
        <stop offset="50%" stop-color="#ed64a6" />
        <stop offset="100%" stop-color="#f56565" />
      </linearGradient>

      <circle
        cx="411.27786"
        cy="411.27786"
        r="90"
        fill="url(#MAIN_GRADIENT)"
      />

      <g>
        <path
          d="M175.762 633.567c-42.611-45.131-71.202-101.052-82.68-161.716l1.964-.371c11.408 60.287 39.822 115.861 82.17 160.714l-1.454 1.373z"
          fill="url(#MAIN_GRADIENT)"
        />
        <path
          d="M220.99 151.674l-1.183-1.613c50.614-37.162 110.512-58.647 173.217-62.13l.112 1.997c-62.318 3.461-121.845 24.813-172.145 61.746z"
          fill="url(#MAIN_GRADIENT)"
        />
        <path
          d="M93.501 359.915l-1.975-.317c7.747-48.305 26.812-95.012 55.135-135.071l1.633 1.154c-28.147 39.811-47.094 86.229-54.793 134.234z"
          fill="url(#MAIN_GRADIENT)"
        />
        <path
          fill="url(#MAIN_GRADIENT)"
          d="M347.35159 180.67073L331.26663 123.7347 335.11624 122.64681 351.2012 179.58284z"
        />
        <path
          fill="url(#MAIN_GRADIENT)"
          d="M280.16751 213.41975L241.10353 172.31331 244.00294 169.55745 283.06693 210.66389z"
        />
        <path
          fill="url(#MAIN_GRADIENT)"
          d="M176.13673 340.25815L126.34963 318.556 127.94827 314.88901 177.73537 336.59116z"
        />
        <path
          fill="url(#MAIN_GRADIENT)"
          d="M85.27639 413.02036H119.91018V417.02036H85.27639z"
        />
        <path
          fill="url(#MAIN_GRADIENT)"
          d="M120.91946 503.22006L119.67629 499.41733 182.95265 478.73569 184.19582 482.53842z"
        />
        <path
          fill="url(#MAIN_GRADIENT)"
          d="M248.59523 684.15656L245.19191 682.05499 284.76663 617.97003 288.16995 620.07159z"
        />
        <path
          fill="url(#MAIN_GRADIENT)"
          d="M491.04691 701.80597L482.11035 646.14581 486.0596 645.51105 494.99612 701.1712z"
        />
        <path
          d="M571.743 641.592c-14.147-14.85-31.118-32.709-31.62-33.46l3.328-2.222-1.664 1.11 1.583-1.22c.929 1.13 19.21 20.374 31.27 33.032l-2.897 2.76z"
          fill="url(#MAIN_GRADIENT)"
        />
        <path
          fill="url(#MAIN_GRADIENT)"
          d="M701.78223 518.44464L647.39844 492.65756 649.11133 489.04233 703.49512 514.82941z"
        />
        <path
          fill="url(#MAIN_GRADIENT)"
          d="M714.12793 413.78647H747.06348V417.78647H714.12793z"
        />
        <path
          fill="url(#MAIN_GRADIENT)"
          d="M641.73633 346.19516L640.47656 342.39926 704.30664 321.20737 705.56641 325.00327z"
        />
        <path
          fill="url(#MAIN_GRADIENT)"
          d="M542.91895 198.37434L539.63379 196.09212 575.63379 144.26204 578.91895 146.54427z"
        />
        <path
          d="M720.638 392.042v-7.915h-46.085v-18.383s-38.012 5.723-52.265 7.946v-.002c-.6-3.44-1.3-6.86-2.07-10.24l8.76-2.172-4.212-15.064-8.406 2.702-.002-.006c-2.03-6.68-4.37-13.22-7.02-19.6l-.001-.002 17.6-7.094-6.894-17.362-18.767 7.205a216.563 216.563 0 00-5.176-9.303l58.283-48.838-15.064-17.49 17.872-14.808-11.489-15.319 4.34-4.213-15.063-12.893-11.362 10.723-6.638-6.51-15.192 15.319-14.936-13.15-43.425 46.983a212.238 212.238 0 00-19.928-13.878l-.003-.002L530.553 216l-12-6.638-6.606 12.686a207.971 207.971 0 00-15.023-7.266l11.289-25.718-17.49-6.766-5.489 14.68-19.532-5.489-2.64 11.79h-.004a210.182 210.182 0 00-12.826-2.77l18.619-71.7-7.32-3.15v-21.701h-8.85v13.702l-21.787-6.128v9.021l-26.894-.75V103.02h-7.149v46.468h-21.277l3.766 49.86h-.002c-9.56 1.42-18.92 3.48-28.02 6.14l-3.45-7.87-15.06 4.72 3.39 8.16c-7.65 2.86-15.09 6.14-22.29 9.82l-5.87-8.4-12.89 6.89 5.07 9.15c-6.93 4.21-13.59 8.79-19.97 13.73l-47.91-60.54-17.61 18.51-15.58-14.81-22.98 23.87 8.68 13.92-10.72 10.85 15.96 14.55-13.79 16.85 55.36 29.46c-3.84 5.89-7.4 11.97-10.65 18.24l-16.24-5.31-5.24 14.17 14.95 4.88c-3.45 7.98-6.43 16.22-8.9 24.67l-6.81-2.11-3.32 15.07 6.61.77c-.89 3.98-1.66 8.01-2.32 12.08l-43.35-14.89-1.28 17.61-43.92-3.06v8.81h19.15v45.96h-20.3v6.89h43.66s.26 18.51 0 19.15c-.21.53 34.69-5.65 46.69-7.75a211.57 211.57 0 003.86 17.31l-6.5 1.03 4.46 14.68 6.42-1.41c2.08 6.03 4.42 11.94 7.01 17.71l-15.34 5.53 8.04 17.49 15.61-6.44c2.3 4.12 4.73 8.16 7.29 12.11l-60.3 43.23 12.89 15.06-10.08 10.21 13.02 14.81-5.11 5.87s17.75 15.45 18 15.83c.26.39 15.07-12.63 15.07-12.63l15.44 16.59 46.36-58.59c5.93 4.8 12.13 9.29 18.56 13.45l-4.66 9.4 15.32 8.3 4.97-8.51c7.87 4.2 16.04 7.91 24.46 11.12l-3.52 12.32 20.94 5.36 3.94-10.84c6.03 1.59 12.16 2.93 18.39 3.99l-17.23 62.26 10.22 3.44v20.17h7.66v-14.42c13.66 4.08 44.55 6.25 44.55 6.25v20.43h7.53l4.34-48.51h19.79l-2.73-49.87c10.47-1.86 20.68-4.49 30.57-7.81l5.73 14.15 17.49-6.13-6.5-14.44c5.9-2.56 11.67-5.37 17.28-8.43l4.16 6.4 11.74-6.13-4.4-7a216.25 216.25 0 0020.47-14.6l.006-.005 39.332 51.864 15.958-14.043 15.574 18.51 10.085-8.297 19.787 20.426 7.277-5.617-21.702-28.98 12.766-14.808-14.426-16.978 15.958-17.745-57.295-31.408c4.08-6.03 7.86-12.28 11.31-18.73l.001-.002c4.36 1.998 9.262 4.24 9.473 4.31.383.128 6.51-13.532 6.51-13.532l-9.301-4.363a202.514 202.514 0 004.896-11.86l8.363 2.308 4.468-14.17-8.15-1.93c2.29-7.58 4.17-15.349 5.6-23.258l48.635 15.358 2.809-21.702 45.83 4.851v-9.064h-20.298v-47.361h21.574zm-125.36 19.236c0 101.62-82.38 184-184 184s-184-82.38-184-184 82.38-184 184-184 184 82.38 184 184z"
          fill="url(#MAIN_GRADIENT)"
        />
      </g>
    </svg>
